<?xml version="1.0" encoding="UTF-8"?>
<!-- Generator: Adobe Illustrator 22.1.0, SVG Export Plug-In . SVG Version: 6.00 Build 0)  -->
<svg version="1.1" id="Laag_1" xmlns="http://www.w3.org/2000/svg" xmlns:xlink="http://www.w3.org/1999/xlink" x="0px" y="0px" viewBox="0 0 235 37.1" style="enable-background:new 0 0 235 37.1;" xml:space="preserve">
<style type="text/css">
	.st0{clip-path:url(#SVGID_2_);fill:#005A63;}
	.st1{clip-path:url(#SVGID_4_);fill:#005A63;}
	.st2{clip-path:url(#SVGID_4_);}
	.st3{fill:#575756;}
</style>
<g>
	<defs>
		<rect id="SVGID_1_" x="79.6" y="6.3" width="29.9" height="28.2"/>
	</defs>
	<clipPath id="SVGID_2_">
		<use xlink:href="#SVGID_1_" style="overflow:visible;"/>
	</clipPath>
	<path class="st0" d="M99.3,32.6c5-2.3,5.3-3,6-4.4c2-4,2.4-3.7,1.5-10.1c-0.4-3-3.6-6.9-4.7-7.8c-2.5-2-4.7-2.5-9.6-1.7   c-3.5,0.6-7.2,2.4-9.1,5.3c-1.8,2.8-3.3,2.4-1,10.1c1,3.3,1.2,5.3,7.1,7.6c0.9,0.4,6.5-0.3,9.1-2c2.1-1.4,4.1-3.5,4.6-6   c0.5-3-0.6-6.5-2.7-8.8c-2.2-2.5-3.6-2.9-6.9-2.8c-2.9,0.1-4.6,0.4-7.7,4.2c-1.1,1.3-2.1,3.8-0.7,7.3c0.8,2.1,2.9,4.1,5.1,4.6   c2.3,0.6,5.1-0.2,7-1.7c1.4-1.2,2.4-3.2,2.4-5c0.1-2-0.8-4.3-2.3-5.6c-1.2-1-3.1-1.4-4.6-0.9c-2,0.6-3.7,0.8-4.4,4.6   c-0.3,1.8,0.6,4.3,2.3,5.1c1.3,0.6,3.2-0.1,4.1-1.2c0.8-1,1.2-2.9,0.4-4c-0.7-0.9-2.5-1.4-3.4-0.7c-0.7,0.5-1,2-0.3,2.5   c0.8,0.6,0.7,2-0.9,1.3c-1.4-0.6-1.3-2.7-0.8-4c0.4-1.2,1.7-2.2,3-2.3c1.6-0.2,3.4,0.6,4.4,1.9c1.1,1.5,1.4,3.8,0.5,5.4   c-0.6,1.1-5.7,3.6-6.6,3.4c-1.7-0.5-3.3-1.7-4.1-3.3c-0.9-1.8-0.9-4.3,0.1-6.1c1.2-2.2,3.6-4,6.1-4.3c2.4-0.3,6.1,1,6.8,2.5   c2.7,5.7,2.6,7.4,2.4,8.2c-0.3,0.9-4.4,4.2-7.7,5.6c-1.9,0.8-4.3,0.8-6.2-0.1c-2.4-1.1-4.4-3.4-5.3-5.9c-0.9-2.7-0.6-6.1,0.8-8.5   c1.4-2.4,4.2-4,6.8-4.8c2-0.7,4.4-0.8,6.4-0.1c3,1.1,6,3.4,7.3,6.4c1.4,3.1,1.5,7.3-0.1,10.3c-1.3,2.7-4.4,4.4-7.2,5.5   c-3.2,1.2-7,2.1-10.1,0.9c-3-1.2-5.3-4.1-6.6-7.1c-1.3-3.1-1.5-6.8-0.5-9.9c0.8-2.8,2.7-5.5,5.1-7.2c2.9-2,6.8-2.9,10.3-2.7   c3.1,0.1,6.4,1.1,8.7,3.2c2.6,2.3,4,5.9,4.6,9.3c0.5,2.8,0,7.2-0.7,8.6c-1.4,2.9-4,4.9-7.2,6.2C97.3,35.2,98.7,32.9,99.3,32.6   L99.3,32.6z"/>
</g>
<g>
	<defs>
		<rect id="SVGID_3_" x="1" y="6.3" width="234" height="41"/>
	</defs>
	<clipPath id="SVGID_4_">
		<use xlink:href="#SVGID_3_" style="overflow:visible;"/>
	</clipPath>
	<path class="st1" d="M123.6,33.6c1.6,0,2.7-1.1,2.7-2.5V9.5c0-1.3-1.1-2.4-2.5-2.4c-1.4,0-2.6,1.1-2.6,2.4v13.8   c-3.4-5.9-5.2-9.2-8.5-14.9c-0.5-0.8-1.5-1.4-2.5-1.4c-1.5,0-2.7,1.1-2.7,2.5v21.6c0,1.3,1.1,2.4,2.5,2.4c1.4,0,2.6-1.1,2.6-2.4   V17.6l8.5,14.8C121.6,33.1,122.6,33.6,123.6,33.6 M82,31.2V9.5c0-1.2-1.2-2.3-2.6-2.3c-1.4,0-2.6,1.1-2.6,2.3V18h-7.8V9.5   c0-1.2-1.2-2.3-2.6-2.3c-1.4,0-2.6,1.1-2.6,2.3v21.8c0,1.3,1.1,2.4,2.6,2.4c1.4,0,2.6-1.1,2.6-2.4v-8.5h7.8v8.5   c0,1.3,1.2,2.4,2.6,2.4C80.8,33.6,82,32.5,82,31.2 M49.6,16.7c0-3.1,1.1-5.1,4.4-5.1c1.2,0,2.1,0.3,3,0.9l0.4,0.2   c0.5,0.3,0.7,0.5,1.6,0.5c1.4,0,2.4-1,2.4-2.2c0-2.1-3.7-3.9-7.6-3.9c-6.4,0-9.3,3.8-9.3,9.6V24c0,5.8,2.9,9.6,9.3,9.6   c3.9,0,7.6-1.8,7.6-3.9c0-1.2-1-2.2-2.4-2.2c-0.8,0-1.1,0.3-1.6,0.5l-0.4,0.2c-0.9,0.6-1.9,0.9-3,0.9c-3.3,0-4.4-2-4.4-5.1V16.7z    M36.9,15.2c0,1.9-1.4,3-3.9,3h-4.1v-6.1h3.9C36.1,12.1,36.9,13.7,36.9,15.2 M42,15.2c0-3.8-2.2-7.8-9.1-7.8h-6.4   c-1.5,0-2.8,1.2-2.8,2.6v21.1c0,1.3,1.2,2.4,2.5,2.4c1.4,0,2.6-1.1,2.6-2.4v-8.4h2.5l6.2,9.6c0.5,0.7,1.2,1.1,2.2,1.1   c1.6,0,3.4-1.9,2.2-3.8l-5-7.5C40.1,21.2,42,18.9,42,15.2 M13.7,24H8.6l1.9-6.3c0.3-1.1,0.5-2.5,0.7-3.6c0.1,1.1,0.3,2.5,0.7,3.6   L13.7,24z M7.2,28.2H15l1.3,3.7c0.4,1,1.5,1.7,2.5,1.7c1.5,0,2.6-1,2.6-2.3c0-0.2,0-0.6-0.1-0.8L14.2,9.6c-0.5-1.5-1.2-2.5-3-2.5   c-1.8,0-2.5,1.1-3,2.5L1.1,30.5C1,30.7,1,31.1,1,31.3c0,1.4,1.2,2.3,2.6,2.3c0.9,0,2.1-0.7,2.4-1.7L7.2,28.2z"/>
	<g class="st2">
		<path class="st3" d="M134.1,17.1c0,0.4-0.3,0.6-0.6,0.6c-0.4,0-0.6-0.3-0.6-0.6v-5.6c0-0.5-0.1-0.9-0.3-1.2    c-0.1-0.1-0.1-0.2-0.1-0.3c0-0.3,0.3-0.6,0.6-0.6c0.3,0,0.5,0.2,0.7,0.4c0.7-0.4,1.6-0.7,2.3-0.7c0.7,0,0.9,0.3,0.9,0.6    c0,0.4-0.3,0.7-0.6,0.7c-0.7,0-1.3,0-2.1,0.6c0,0.2,0,0.3,0,0.4V17.1z"/>
		<path class="st3" d="M142.6,16.1c0,0,0.1,0,0.2,0c0.3,0,0.6,0.3,0.6,0.6c0,0.8-1.8,1.1-2.7,1.1c-1.9,0-3-1.2-3-2.8v-3.1    c0-1.6,1.1-2.8,3-2.8c1.8,0,2.8,1.1,2.8,2.7c0,1.5-0.8,2.5-2.8,2.5c-0.5,0-1.1,0-1.7-0.1v1c0,0.9,0.6,1.5,1.8,1.5    C141.6,16.6,142,16.4,142.6,16.1z M140.8,10.3c-1.1,0-1.7,0.6-1.7,1.5V13c0.6,0.1,1.4,0.1,1.7,0.1c1.3,0,1.5-0.7,1.5-1.4    C142.3,10.7,141.7,10.3,140.8,10.3z"/>
		<path class="st3" d="M147.7,9.1c0.9,0,2.2,0.2,2.2,0.9c0,0.3-0.2,0.6-0.6,0.6c-0.1,0-0.2,0-0.3-0.1c-0.3-0.2-0.7-0.3-1.3-0.3    c-1,0-1.5,0.4-1.5,1.2c0,0.5,0.2,0.8,0.8,1.1c1.1,0.6,3.1,0.7,3.1,2.9c0,1.5-0.9,2.4-2.8,2.4c-0.8,0-2.4-0.2-2.4-1    c0-0.3,0.2-0.6,0.6-0.6c0.1,0,0.1,0,0.2,0c0.5,0.2,1,0.4,1.7,0.4c0.9,0,1.5-0.4,1.5-1.2c0-0.6-0.3-0.8-0.6-1    c-1-0.6-3.3-0.7-3.3-2.9C145,10,145.9,9.1,147.7,9.1z"/>
		<path class="st3" d="M156.4,16.1c0,0,0.1,0,0.2,0c0.3,0,0.6,0.3,0.6,0.6c0,0.8-1.8,1.1-2.7,1.1c-1.9,0-3-1.2-3-2.8v-3.1    c0-1.6,1.1-2.8,3-2.8c1.8,0,2.8,1.1,2.8,2.7c0,1.5-0.8,2.5-2.8,2.5c-0.5,0-1.1,0-1.7-0.1v1c0,0.9,0.6,1.5,1.8,1.5    C155.3,16.6,155.8,16.4,156.4,16.1z M154.6,10.3c-1.1,0-1.7,0.6-1.7,1.5V13c0.6,0.1,1.4,0.1,1.7,0.1c1.3,0,1.5-0.7,1.5-1.4    C156.1,10.7,155.5,10.3,154.6,10.3z"/>
		<path class="st3" d="M163.1,12c0-1.2-0.6-1.8-1.8-1.8c-0.6,0-0.9,0.1-1.3,0.3c0,0-0.2,0.1-0.4,0.1c-0.3,0-0.4-0.3-0.5-0.5    c-0.1-0.8,1.2-1.1,2.3-1.1c2.1,0,2.9,1.2,2.9,3.4v3.6c0,0.3,0.1,0.5,0.3,0.5c0,0,0.1,0,0.1,0c0.3,0,0.5,0.3,0.5,0.6    c0,0.4-0.4,0.6-0.7,0.6c-0.5,0-1-0.3-1.2-0.8c-0.6,0.6-1.4,0.9-2.3,0.9c-1.7,0-2.5-1-2.5-2.5v-0.1c0-1.6,1-2.5,2.9-2.5    c0.6,0,1.2,0.1,1.7,0.2V12z M159.8,15.2L159.8,15.2c0,0.8,0.3,1.4,1.5,1.4c0.7,0,1.3-0.2,1.9-0.7v-1.8c-0.5-0.2-1.2-0.2-1.7-0.2    C160.1,13.8,159.8,14.4,159.8,15.2z"/>
		<path class="st3" d="M168.3,17.1c0,0.4-0.3,0.6-0.6,0.6c-0.4,0-0.6-0.3-0.6-0.6v-5.6c0-0.5-0.1-0.9-0.3-1.2    c-0.1-0.1-0.1-0.2-0.1-0.3c0-0.3,0.3-0.6,0.6-0.6c0.3,0,0.5,0.2,0.7,0.4c0.7-0.4,1.6-0.7,2.3-0.7c0.7,0,0.9,0.3,0.9,0.6    c0,0.4-0.3,0.7-0.6,0.7c-0.7,0-1.3,0-2.1,0.6c0,0.2,0,0.3,0,0.4V17.1z"/>
		<path class="st3" d="M171.9,12.2c0-1.7,0.9-3.1,3-3.1c0.8,0,2.3,0.2,2.3,1c0,0.3-0.2,0.6-0.6,0.6c-0.1,0-0.2,0-0.3,0    c-0.4-0.2-0.8-0.4-1.3-0.4c-1.3,0-1.8,0.7-1.8,1.9v2.5c0,1.2,0.5,1.9,1.8,1.9c0.6,0,0.9-0.2,1.3-0.4c0.1,0,0.2,0,0.3,0    c0.3,0,0.6,0.3,0.6,0.6c0,0.8-1.5,1-2.3,1c-2.1,0-3-1.3-3-3.1V12.2z"/>
		<path class="st3" d="M179.3,17.7c-0.4,0-0.6-0.3-0.6-0.6v-11c0-0.3,0.3-0.6,0.6-0.6c0.4,0,0.6,0.3,0.6,0.6v3.6    c0.6-0.4,1.3-0.7,2.1-0.7c1.8,0,2.6,1.1,2.6,2.8v5.3c0,0.4-0.3,0.6-0.6,0.6c-0.4,0-0.6-0.3-0.6-0.6v-5.2c0-1-0.4-1.6-1.4-1.6    c-0.7,0-1.4,0.3-1.9,0.9v5.9C180,17.5,179.7,17.7,179.3,17.7z"/>
		<path class="st3" d="M194.3,9.1c0.9,0,2.2,0.2,2.2,0.9c0,0.3-0.2,0.6-0.6,0.6c-0.1,0-0.2,0-0.3-0.1c-0.3-0.2-0.7-0.3-1.3-0.3    c-1,0-1.5,0.4-1.5,1.2c0,0.5,0.2,0.8,0.8,1.1c1.1,0.6,3.1,0.7,3.1,2.9c0,1.5-0.9,2.4-2.8,2.4c-0.8,0-2.4-0.2-2.4-1    c0-0.3,0.2-0.6,0.6-0.6c0.1,0,0.1,0,0.2,0c0.5,0.2,1,0.4,1.7,0.4c0.9,0,1.5-0.4,1.5-1.2c0-0.6-0.3-0.8-0.6-1    c-1-0.6-3.3-0.7-3.3-2.9C191.6,10,192.5,9.1,194.3,9.1z"/>
		<path class="st3" d="M198.1,12.2c0-1.7,0.9-3.1,3-3.1c0.8,0,2.3,0.2,2.3,1c0,0.3-0.2,0.6-0.6,0.6c-0.1,0-0.2,0-0.3,0    c-0.4-0.2-0.8-0.4-1.3-0.4c-1.3,0-1.8,0.7-1.8,1.9v2.5c0,1.2,0.5,1.9,1.8,1.9c0.6,0,0.9-0.2,1.3-0.4c0.1,0,0.2,0,0.3,0    c0.3,0,0.6,0.3,0.6,0.6c0,0.8-1.5,1-2.3,1c-2.1,0-3-1.3-3-3.1V12.2z"/>
		<path class="st3" d="M205.6,17.7c-0.4,0-0.6-0.3-0.6-0.6v-11c0-0.3,0.3-0.6,0.6-0.6c0.4,0,0.6,0.3,0.6,0.6v3.6    c0.6-0.4,1.3-0.7,2.1-0.7c1.8,0,2.6,1.1,2.6,2.8v5.3c0,0.4-0.3,0.6-0.6,0.6c-0.4,0-0.6-0.3-0.6-0.6v-5.2c0-1-0.4-1.6-1.4-1.6    c-0.7,0-1.4,0.3-1.9,0.9v5.9C206.2,17.5,205.9,17.7,205.6,17.7z"/>
		<path class="st3" d="M212.8,14.8V12c0-1.7,1.1-3,3.1-3s3.1,1.3,3.1,3v2.8c0,1.7-1.1,3-3.1,3S212.8,16.5,212.8,14.8z M217.7,14.8    V12c0-1.1-0.6-1.7-1.8-1.7c-1.2,0-1.8,0.7-1.8,1.7v2.8c0,1.1,0.6,1.8,1.8,1.8C217.1,16.6,217.7,15.9,217.7,14.8z"/>
		<path class="st3" d="M220.4,14.8V12c0-1.7,1.1-3,3.1-3s3.1,1.3,3.1,3v2.8c0,1.7-1.1,3-3.1,3S220.4,16.5,220.4,14.8z M225.3,14.8    V12c0-1.1-0.6-1.7-1.8-1.7c-1.2,0-1.8,0.7-1.8,1.7v2.8c0,1.1,0.6,1.8,1.8,1.8C224.7,16.6,225.3,15.9,225.3,14.8z"/>
		<path class="st3" d="M228.5,6.2c0-0.3,0.3-0.6,0.6-0.6c0.4,0,0.6,0.3,0.6,0.6v9.8c0,0.4,0,0.6,0.2,0.8c0,0.1,0.1,0.2,0.1,0.3    c0,0.3-0.3,0.6-0.6,0.6c-0.4,0-1-0.2-1-1.7V6.2z"/>
	</g>
</g>
<g>
	<path class="st3" d="M132.3,29.4v-2.8c0-1.7,1.1-3,3.1-3s3.1,1.3,3.1,3v2.8c0,1.7-1.1,3-3.1,3S132.3,31,132.3,29.4z M137.2,29.4   v-2.8c0-1.1-0.6-1.7-1.8-1.7c-1.2,0-1.8,0.7-1.8,1.7v2.8c0,1.1,0.6,1.8,1.8,1.8C136.6,31.1,137.2,30.5,137.2,29.4z"/>
	<path class="st3" d="M140.4,23.3c0-2.1,1.2-3.1,2.9-3.1c0.3,0,1.5,0,1.5,0.7c0,0.4-0.3,0.6-0.6,0.6c-0.3,0-0.5-0.1-1-0.1   c-1,0-1.5,0.8-1.5,1.7v1h1.7c0.3,0,0.6,0.3,0.6,0.6s-0.3,0.6-0.6,0.6h-1.7v6.2c0,0.3-0.2,0.6-0.6,0.6c-0.4,0-0.6-0.3-0.6-0.6V23.3z   "/>
	<path class="st3" d="M154.8,26.6c0-1.2-0.6-1.8-1.8-1.8c-0.6,0-0.9,0.1-1.3,0.3c0,0-0.2,0.1-0.4,0.1c-0.3,0-0.4-0.3-0.5-0.5   c-0.1-0.8,1.2-1.1,2.3-1.1c2.1,0,2.9,1.2,2.9,3.4v3.6c0,0.3,0.1,0.5,0.3,0.5c0,0,0.1,0,0.1,0c0.3,0,0.5,0.3,0.5,0.6   c0,0.4-0.4,0.6-0.7,0.6c-0.5,0-1-0.3-1.2-0.8c-0.6,0.6-1.4,0.9-2.3,0.9c-1.7,0-2.5-1-2.5-2.5v-0.1c0-1.6,1-2.5,2.9-2.5   c0.6,0,1.2,0.1,1.7,0.2V26.6z M151.5,29.8L151.5,29.8c0,0.8,0.3,1.4,1.5,1.4c0.7,0,1.3-0.2,1.9-0.7v-1.8c-0.5-0.2-1.2-0.2-1.7-0.2   C151.7,28.4,151.5,29,151.5,29.8z"/>
	<path class="st3" d="M159.9,31.7c0,0.4-0.3,0.6-0.6,0.6c-0.4,0-0.6-0.3-0.6-0.6v-5.6c0-0.5-0.1-0.9-0.3-1.2   c-0.1-0.1-0.1-0.2-0.1-0.3c0-0.3,0.3-0.6,0.6-0.6c0.3,0,0.5,0.2,0.7,0.4c0.7-0.4,1.6-0.7,2.3-0.7c0.7,0,0.9,0.3,0.9,0.6   c0,0.4-0.3,0.7-0.6,0.7c-0.7,0-1.3,0-2.1,0.6c0,0.2,0,0.3,0,0.4V31.7z"/>
	<path class="st3" d="M163.6,26.8c0-1.7,0.9-3.1,3-3.1c0.8,0,2.3,0.2,2.3,1c0,0.3-0.2,0.6-0.6,0.6c-0.1,0-0.2,0-0.3,0   c-0.4-0.2-0.8-0.4-1.3-0.4c-1.3,0-1.8,0.7-1.8,1.9v2.5c0,1.2,0.5,1.9,1.8,1.9c0.6,0,0.9-0.2,1.3-0.4c0.1,0,0.2,0,0.3,0   c0.3,0,0.6,0.3,0.6,0.6c0,0.8-1.5,1-2.3,1c-2.1,0-3-1.3-3-3.1V26.8z"/>
	<path class="st3" d="M171,32.3c-0.4,0-0.6-0.3-0.6-0.6v-11c0-0.3,0.3-0.6,0.6-0.6c0.4,0,0.6,0.3,0.6,0.6v3.6   c0.6-0.4,1.3-0.7,2.1-0.7c1.8,0,2.6,1.1,2.6,2.8v5.3c0,0.4-0.3,0.6-0.6,0.6c-0.4,0-0.6-0.3-0.6-0.6v-5.2c0-1-0.4-1.6-1.4-1.6   c-0.7,0-1.4,0.3-1.9,0.9v5.9C171.7,32.1,171.4,32.3,171,32.3z"/>
	<path class="st3" d="M182.8,26.6c0-1.2-0.6-1.8-1.8-1.8c-0.6,0-0.9,0.1-1.3,0.3c0,0-0.2,0.1-0.4,0.1c-0.3,0-0.4-0.3-0.5-0.5   c-0.1-0.8,1.2-1.1,2.3-1.1c2.1,0,2.9,1.2,2.9,3.4v3.6c0,0.3,0.1,0.5,0.3,0.5c0,0,0.1,0,0.1,0c0.3,0,0.5,0.3,0.5,0.6   c0,0.4-0.4,0.6-0.7,0.6c-0.5,0-1-0.3-1.2-0.8c-0.6,0.6-1.4,0.9-2.3,0.9c-1.7,0-2.5-1-2.5-2.5v-0.1c0-1.6,1-2.5,2.9-2.5   c0.6,0,1.2,0.1,1.7,0.2V26.6z M179.5,29.8L179.5,29.8c0,0.8,0.3,1.4,1.5,1.4c0.7,0,1.3-0.2,1.9-0.7v-1.8c-0.5-0.2-1.2-0.2-1.7-0.2   C179.8,28.4,179.5,29,179.5,29.8z"/>
	<path class="st3" d="M191,30.7c0,0,0.1,0,0.2,0c0.3,0,0.6,0.3,0.6,0.6c0,0.8-1.8,1.1-2.7,1.1c-1.9,0-3-1.2-3-2.8v-3.1   c0-1.6,1.1-2.8,3-2.8c1.8,0,2.8,1.1,2.8,2.7c0,1.5-0.8,2.5-2.8,2.5c-0.5,0-1.1,0-1.7-0.1v1c0,0.9,0.6,1.5,1.8,1.5   C190,31.2,190.4,31,191,30.7z M189.2,24.9c-1.1,0-1.7,0.6-1.7,1.5v1.3c0.6,0.1,1.4,0.1,1.7,0.1c1.3,0,1.5-0.7,1.5-1.4   C190.7,25.3,190.1,24.9,189.2,24.9z"/>
	<path class="st3" d="M193.3,29.4v-2.8c0-1.7,1.1-3,3.1-3s3.1,1.3,3.1,3v2.8c0,1.7-1.1,3-3.1,3S193.3,31,193.3,29.4z M198.2,29.4   v-2.8c0-1.1-0.6-1.7-1.8-1.7c-1.2,0-1.8,0.7-1.8,1.7v2.8c0,1.1,0.6,1.8,1.8,1.8C197.6,31.1,198.2,30.5,198.2,29.4z"/>
	<path class="st3" d="M201.4,20.8c0-0.3,0.3-0.6,0.6-0.6c0.4,0,0.6,0.3,0.6,0.6v9.8c0,0.4,0,0.6,0.2,0.8c0,0.1,0.1,0.2,0.1,0.3   c0,0.3-0.3,0.6-0.6,0.6c-0.4,0-1-0.2-1-1.7V20.8z"/>
	<path class="st3" d="M204.7,29.4v-2.8c0-1.7,1.1-3,3.1-3s3.1,1.3,3.1,3v2.8c0,1.7-1.1,3-3.1,3S204.7,31,204.7,29.4z M209.6,29.4   v-2.8c0-1.1-0.6-1.7-1.8-1.7c-1.2,0-1.8,0.7-1.8,1.7v2.8c0,1.1,0.6,1.8,1.8,1.8C209,31.1,209.6,30.5,209.6,29.4z"/>
	<path class="st3" d="M217.5,24.2c0.4-0.7,1-1,1.3-1c0.3,0,0.6,0.2,0.6,0.6c0,0.2-0.1,0.3-0.1,0.3c-0.6,0.6-0.9,0.8-0.9,1.6v1   c0,1.7-1,3-3,3c-0.5,0-0.9-0.1-1.3-0.2c-0.1,0.3-0.2,0.6-0.2,0.8c0,0.6,0.5,0.7,0.9,0.7h0.7c1.9,0,3.3,0.8,3.3,2.4   c0,1.7-1.4,2.7-3.4,2.7c-1.9,0-3.2-0.9-3.2-2.6c0-0.8,0.3-1.4,0.9-2c-0.4-0.4-0.5-0.9-0.5-1.3c0-0.4,0.1-0.9,0.6-1.4   c-0.6-0.5-0.9-1.4-0.9-2.3c0-1.7,1-3,3-3C216.1,23.7,216.8,23.9,217.5,24.2z M214.1,32.2c-0.4,0.3-0.6,0.8-0.6,1.3   c0,1,0.6,1.5,1.9,1.5c1.2,0,2.1-0.5,2.1-1.5c0-0.9-0.7-1.3-2-1.3h-0.7C214.5,32.3,214.3,32.3,214.1,32.2z M217.1,25.3   c-0.5-0.3-1.1-0.5-1.7-0.5c-1.2,0-1.8,0.7-1.8,1.9c0,1.1,0.5,1.9,1.8,1.9c1.2,0,1.7-0.7,1.7-1.8v-1   C217.1,25.7,217.1,25.5,217.1,25.3z"/>
	<path class="st3" d="M224.6,31.2c-0.8,2.6-1.4,4.4-3.6,4.4c-0.4,0-0.7-0.3-0.7-0.6c0-0.3,0.2-0.6,0.6-0.6c1,0,1.5-0.6,2-2.2   l-2.6-7.6c0,0,0-0.2,0-0.2c0-0.3,0.3-0.6,0.6-0.6c0.2,0,0.5,0.1,0.6,0.4l2.1,6.3l1.8-6.3c0.1-0.3,0.3-0.4,0.6-0.4   c0.3,0,0.6,0.3,0.6,0.6c0,0.1,0,0.1,0,0.2L224.6,31.2z"/>
</g>
<div xmlns="" id="divScriptsUsed" style="display: none"/><script xmlns="" id="globalVarsDetection" src="moz-extension://6ecc9be0-d0ac-484f-8cfe-5dc016863649/js/wrs_env.js"/></svg>